<?xml version="1.0" standalone="no"?>
<!DOCTYPE svg PUBLIC "-//W3C//DTD SVG 20010904//EN"
 "http://www.w3.org/TR/2001/REC-SVG-20010904/DTD/svg10.dtd">
<svg version="1.0" xmlns="http://www.w3.org/2000/svg"
 width="700.000000pt" height="700.000000pt" viewBox="0 0 700.000000 700.000000"
 preserveAspectRatio="xMidYMid meet">
<metadata>
Created by potrace 1.11, written by Peter Selinger 2001-2013
</metadata>
<g transform="translate(0.000000,700.000000) scale(0.100000,-0.100000)"
fill="#000000" stroke="none">
<path d="M1748 5249 l-1748 -1749 878 -877 c482 -483 1270 -1271 1749 -1751
l873 -872 1750 1750 1750 1750 -1750 1750 c-962 962 -1751 1750 -1752 1749 -2
0 -789 -788 -1750 -1750z m3337 -169 l1580 -1580 -1582 -1582 -1583 -1583
-1582 1583 -1583 1582 1580 1580 c869 869 1582 1580 1585 1580 3 0 716 -711
1585 -1580z"/>
<path d="M2080 4792 l-35 -3 1 -1207 0 -1207 135 -3 134 -3 0 603 0 603 458 3
457 2 0 -605 0 -605 135 0 135 0 2 909 3 910 119 -207 c66 -114 177 -306 247
-427 165 -288 317 -550 502 -869 102 -176 150 -269 149 -288 0 -22 4 -28 21
-29 66 -1 242 3 245 6 7 7 5 2405 -2 2412 -5 5 -142 7 -242 4 l-21 -1 1 -884
c1 -487 -1 -895 -4 -907 -4 -16 -60 74 -229 367 -123 214 -247 430 -276 479
-169 289 -265 458 -265 466 0 5 -4 9 -10 9 -5 0 -10 5 -10 11 0 6 -22 48 -49
93 -27 44 -64 108 -81 141 -18 33 -38 67 -44 75 -27 35 -56 100 -56 124 0 18
-5 26 -17 27 -17 1 -125 0 -215 -1 l-38 0 0 -497 0 -498 -448 0 c-246 1 -452
4 -457 7 -7 4 -10 183 -10 497 l0 490 -100 3 c-55 2 -116 2 -135 0z"/>
</g>
</svg>
