<?xml version="1.0" encoding="iso-8859-1"?>
<!-- Generator: Adobe Illustrator 20.0.0, SVG Export Plug-In . SVG Version: 6.00 Build 0)  -->
<svg version="1.1"
	 xmlns="http://www.w3.org/2000/svg" xmlns:xlink="http://www.w3.org/1999/xlink" x="0px" y="0px" viewBox="0 0 24 24"
	 style="enable-background:new 0 0 24 24;" xml:space="preserve">
<path d="M11.999,2L2.005,8.603l-0.006,6.795L11.993,22l9.994-6.603l0.006-6.795L11.999,2z M11.999,14l-3-2l3-2l3,2L11.999,14z
	 M12.999,8.263V5.058l6.234,4.119l-2.432,1.621L12.999,8.263z M10.999,8.263l-3.802,2.535L4.765,9.177l6.234-4.119V8.263z M5.394,12
	l-1.393,0.929l0.002-1.856L5.394,12z M7.197,13.202l3.802,2.535v3.209l-6.237-4.121L7.197,13.202z M12.999,15.737l3.802-2.535
	l2.429,1.619l-6.232,4.117V15.737z M18.604,12l1.387-0.925l-0.002,1.848L18.604,12z" fill="#FFFFFF"/>
</svg>
